<svg width="50" height="62" viewBox="0 0 50 62" fill="none" xmlns="http://www.w3.org/2000/svg">
<path d="M36.524 54.8397C36.524 58.2939 33.7237 61.0942 30.2695 61.0942H7.16048C3.70622 61.0942 0.905945 58.2939 0.905945 54.8397V7.16054C0.905945 3.70628 3.70622 0.906006 7.16048 0.906006H30.2695C33.7237 0.906006 36.524 3.70628 36.524 7.16054V54.8397Z" fill="#868EAF"/>
<path d="M30.2694 0.906006H15.2558C13.9326 2.29733 13.1179 4.17642 13.1179 6.24359V22.1207C13.1179 23.0803 13.5013 23.9664 14.1973 24.6159C14.8366 25.2124 15.6698 25.541 16.5439 25.5409C17.4623 25.5408 18.3254 25.1769 18.9746 24.5163L21.0303 22.4241H36.5241V7.16054C36.5239 3.70628 33.7238 0.906006 30.2694 0.906006Z" fill="white"/>
<path d="M32.9001 54.8397C32.9001 56.2925 31.7223 57.4703 30.2695 57.4703H7.1604C5.70748 57.4703 4.52972 56.2925 4.52972 54.8396V7.16059C4.52972 5.70766 5.70748 4.52991 7.1604 4.52991H8.65597C8.9797 4.52991 9.26949 4.73067 9.38328 5.03374L9.73926 5.98199C10.1317 7.02747 11.1314 7.71999 12.2482 7.71999H25.1815C26.2982 7.71999 27.2979 7.02747 27.6905 5.98199L28.0465 5.03374C28.1603 4.73067 28.4501 4.52991 28.7738 4.52991H30.2695C31.7223 4.52991 32.9001 5.70766 32.9001 7.16047V54.8397Z" fill="#DFECFF"/>
<path d="M32.9001 7.16047C32.9001 5.70766 31.7223 4.52991 30.2695 4.52991H28.7738C28.4501 4.52991 28.1603 4.73067 28.0465 5.03374L27.6905 5.98199C27.2981 7.02747 26.2984 7.72011 25.1815 7.72011H13.1178V22.1208C13.1178 23.0804 13.5012 23.9666 14.1972 24.6161C14.8365 25.2126 15.6697 25.5412 16.5438 25.541C17.4622 25.5409 18.3253 25.1771 18.9744 24.5165L21.0301 22.4243H32.9002V7.16047H32.9001Z" fill="#C8EFFE"/>
<path d="M43.3018 20.0082H20.017L17.2512 22.8232C16.6224 23.4633 15.5339 23.0181 15.5339 22.1207V6.24347C15.5339 3.29595 17.9233 0.906494 20.8709 0.906494H43.3018C46.2493 0.906494 48.6388 3.29595 48.6388 6.24347V14.6711C48.6388 17.6186 46.2493 20.0082 43.3018 20.0082Z" fill="#FFA76B"/>
<path d="M23.1976 6.24359C23.1976 3.29607 25.5871 0.906494 28.5347 0.906494H20.8709C17.9233 0.906494 15.5339 3.29595 15.5339 6.24359V22.1207C15.5339 23.018 16.6224 23.4632 17.2512 22.8231L20.017 20.0081H23.1977V6.24359H23.1976Z" fill="#FFA76B"/>
<path d="M26.1667 48.7513H11.2633C10.6447 48.7513 10.1431 48.2497 10.1431 47.6311V44.3809C10.1431 43.7623 10.6447 43.2607 11.2633 43.2607H26.1667C26.7853 43.2607 27.2869 43.7623 27.2869 44.3809V47.6311C27.2869 48.2497 26.7853 48.7513 26.1667 48.7513Z" fill="#87B0EC"/>
<path d="M36.524 22.7261C36.0236 22.7261 35.6181 23.1316 35.6181 23.632V54.8397C35.6181 57.789 33.2187 60.1882 30.2695 60.1882H7.1605C4.21129 60.1882 1.81193 57.789 1.81193 54.8397V7.16038C1.81193 4.21117 4.21129 1.81193 7.1605 1.81193H13.6779C14.1783 1.81193 14.5839 1.40642 14.5839 0.905965C14.5839 0.40551 14.1783 0 13.6779 0H7.1605C3.21219 0 0 3.21219 0 7.16038V54.8396C0 58.7879 3.21219 62 7.1605 62H30.2695C34.2179 62 37.43 58.7878 37.43 54.8396V23.632C37.43 23.1316 37.0245 22.7261 36.524 22.7261Z" fill="black"/>
<path d="M3.6239 54.8397C3.6239 56.7898 5.21043 58.3762 7.16055 58.3762H30.2697C32.2198 58.3762 33.8062 56.7897 33.8062 54.8397V23.6321C33.8062 23.1316 33.4007 22.7261 32.9002 22.7261C32.3998 22.7261 31.9942 23.1316 31.9942 23.6321V54.8398C31.9942 55.7907 31.2206 56.5644 30.2697 56.5644H7.16055C6.20952 56.5644 5.43583 55.7907 5.43583 54.8398V21.6694C5.43583 21.1689 5.03032 20.7634 4.52987 20.7634C4.02941 20.7634 3.6239 21.1689 3.6239 21.6694V54.8397Z" fill="black"/>
<path d="M4.52987 18.7144C5.03032 18.7144 5.43583 18.3089 5.43583 17.8084V7.16043C5.43583 6.20952 6.20952 5.43583 7.16055 5.43583H8.56672L8.8913 6.30036C9.35975 7.54782 10.4728 8.42721 11.7959 8.59547C12.2925 8.65974 12.7459 8.30738 12.8089 7.81091C12.872 7.31468 12.5207 6.86109 12.0244 6.79792C11.3698 6.71481 10.8192 6.27995 10.5876 5.66341L10.2318 4.71492C9.98643 4.06239 9.35334 3.6239 8.65623 3.6239H7.16055C5.21031 3.6239 3.6239 5.21043 3.6239 7.16043V17.8083C3.6239 18.3087 4.02953 18.7144 4.52987 18.7144Z" fill="black"/>
<path d="M43.3018 0.000488281H20.8709C17.4284 0.000488281 14.6278 2.80113 14.6278 6.24355V22.1206C14.6278 22.8989 15.0934 23.5923 15.8135 23.8869C16.0491 23.9833 16.295 24.0302 16.5387 24.0302C17.0396 24.0302 17.5303 23.8317 17.8973 23.4581L20.3966 20.9141H26.3224C26.8228 20.9141 27.2283 20.5086 27.2283 20.0082C27.2283 19.5077 26.8228 19.1022 26.3224 19.1022H20.0167C19.7737 19.1022 19.5409 19.1999 19.3705 19.3733L16.6047 22.1883C16.5878 22.2057 16.5594 22.2347 16.4995 22.2099C16.4396 22.1855 16.4396 22.1449 16.4396 22.1208V6.24355C16.4396 3.80022 18.4274 1.81242 20.8707 1.81242H43.3016C45.7449 1.81242 47.7327 3.80022 47.7327 6.24355V14.6712C47.7327 17.1145 45.7449 19.1023 43.3016 19.1023H30.1833C29.6829 19.1023 29.2774 19.5078 29.2774 20.0083C29.2774 20.5088 29.6829 20.9143 30.1833 20.9143H43.3018C46.7443 20.9143 49.5449 18.1136 49.5449 14.6712V6.24355C49.5448 2.80101 46.7443 0.000488281 43.3018 0.000488281Z" fill="black"/>
<path d="M45.4033 6.89718C45.4033 6.39672 44.9978 5.99121 44.4974 5.99121H21.0459C20.5455 5.99121 20.14 6.39672 20.14 6.89718C20.14 7.39763 20.5455 7.80314 21.0459 7.80314H44.4975C44.9978 7.80314 45.4033 7.39751 45.4033 6.89718Z" fill="black"/>
<path d="M26.3225 12.9217H44.4974C44.9978 12.9217 45.4034 12.5162 45.4034 12.0157C45.4034 11.5153 44.9978 11.1097 44.4974 11.1097H26.3225C25.8221 11.1097 25.4166 11.5153 25.4166 12.0157C25.4166 12.5162 25.8222 12.9217 26.3225 12.9217Z" fill="black"/>
<path d="M21.0459 11.1097C20.5455 11.1097 20.14 11.5153 20.14 12.0157C20.14 12.5162 20.5455 12.9217 21.0459 12.9217H22.2917C22.7921 12.9217 23.1976 12.5162 23.1976 12.0157C23.1976 11.5153 22.7921 11.1097 22.2917 11.1097H21.0459Z" fill="black"/>
<path d="M11.2633 42.3547C10.146 42.3547 9.23718 43.2636 9.23718 44.3808V47.631C9.23718 48.7481 10.146 49.6569 11.2633 49.6569H13.6033C14.1038 49.6569 14.5093 49.2514 14.5093 48.751C14.5093 48.2505 14.1038 47.845 13.6033 47.845H11.2633C11.1451 47.845 11.0491 47.749 11.0491 47.631V44.3808C11.0491 44.2627 11.1453 44.1667 11.2633 44.1667H26.1668C26.2849 44.1667 26.3809 44.2628 26.3809 44.3808V47.631C26.3809 47.7491 26.2848 47.845 26.1668 47.845H17.4643C16.9639 47.845 16.5583 48.2505 16.5583 48.751C16.5583 49.2514 16.9639 49.6569 17.4643 49.6569H26.1668C27.284 49.6569 28.1929 48.7481 28.1929 47.631V44.3808C28.1929 43.2636 27.284 42.3547 26.1668 42.3547H11.2633Z" fill="black"/>
</svg>
