<svg width="66" height="66" viewBox="0 0 66 66" fill="none" xmlns="http://www.w3.org/2000/svg">
<path d="M63.967 49.286V61.8697H53.4806V57.6751V53.4806V49.286H63.967Z" fill="#FFA76B"/>
<path d="M26.216 57.6752V63.967H1.04865V38.7997H26.216V47.1888V53.4806V57.6752Z" fill="#87B0EC"/>
<path d="M53.4806 53.4806V57.6751H26.216V53.4806H34.6051H53.4806Z" fill="#87B0EC"/>
<path d="M34.6051 1.04858C49.0868 1.04858 60.8211 12.7829 60.8211 27.2646C60.8211 41.7463 49.0868 53.4805 34.6051 53.4805H26.216V47.1887H34.6051C45.6053 47.1887 54.5292 38.2648 54.5292 27.2646C54.5292 16.2643 45.6053 7.34042 34.6051 7.34042C23.6049 7.34042 14.681 16.2643 14.681 27.2646H16.7782L11.535 33.5564L6.29184 27.2646H8.38912C8.38912 12.7829 20.1234 1.04858 34.6051 1.04858Z" fill="#DFECFF"/>
<path d="M37.751 27.2646H48.2374C48.2374 33.0531 43.5395 37.751 37.751 37.751C31.9625 37.751 27.2646 33.0531 27.2646 27.2646H37.751Z" fill="#E6E9ED"/>
<path d="M48.2374 27.2646H37.751V16.7782C43.5395 16.7782 48.2374 21.4761 48.2374 27.2646Z" fill="#868EAF"/>
<path d="M33.5565 12.5836V23.07H23.0701C23.0701 17.2815 27.768 12.5836 33.5565 12.5836Z" fill="#FFA76B"/>
<path d="M52.432 48.2374V52.432H45.0841C54.9319 48.3171 61.8697 38.5868 61.8697 27.2646C61.8697 12.2303 49.6394 0 34.6051 0C19.9231 0 7.91408 11.6672 7.3604 26.216H4.05299L11.535 35.1944L19.0171 26.216H15.7589C16.3042 16.2938 24.5486 8.38911 34.6051 8.38911C45.0128 8.38911 53.4806 16.8569 53.4806 27.2646C53.4806 37.6724 45.0128 46.1401 34.6051 46.1401H27.2646V37.751H0V65.0156H27.2646V58.7238H52.432V62.9183H65.0156V48.2374H52.432ZM34.6051 48.2374C46.1695 48.2374 55.5779 38.829 55.5779 27.2646C55.5779 15.7002 46.1695 6.29183 34.6051 6.29183C23.0407 6.29183 13.6323 15.7002 13.6323 27.2646V28.3133H14.5394L11.535 31.9185L8.53068 28.3133H9.43775V27.2646C9.43775 13.388 20.7284 2.09728 34.6051 2.09728C48.4817 2.09728 59.7724 13.388 59.7724 27.2646C59.7724 41.1413 48.4817 52.432 34.6051 52.432H27.2646V48.2374H34.6051ZM25.1673 62.9183H2.09728V39.8483H25.1673V62.9183ZM27.2646 56.6265V54.5292H52.432V56.6265H27.2646ZM62.9183 60.8211H54.5292V50.3347H62.9183V60.8211Z" fill="black"/>
<path d="M56.6265 52.432H60.8211V54.5293H56.6265V52.432Z" fill="black"/>
<path d="M56.6265 56.6265H60.8211V58.7237H56.6265V56.6265Z" fill="black"/>
<path d="M4.19455 41.9456H6.29183V44.0428H4.19455V41.9456Z" fill="black"/>
<path d="M8.3891 41.9456H10.4864V44.0428H8.3891V41.9456Z" fill="black"/>
<path d="M12.5837 41.9456H23.0701V44.0428H12.5837V41.9456Z" fill="black"/>
<path d="M4.19455 46.1401H23.0701V48.2374H4.19455V46.1401Z" fill="black"/>
<path d="M4.19455 50.3347H23.0701V52.432H4.19455V50.3347Z" fill="black"/>
<path d="M4.19455 54.5292H23.0701V56.6265H4.19455V54.5292Z" fill="black"/>
<path d="M20.9728 58.7238H23.0701V60.821H20.9728V58.7238Z" fill="black"/>
<path d="M16.7782 58.7238H18.8755V60.821H16.7782V58.7238Z" fill="black"/>
<path d="M4.19455 58.7238H14.6809V60.821H4.19455V58.7238Z" fill="black"/>
<path d="M26.216 27.2646C26.216 33.6246 31.391 38.7997 37.751 38.7997C44.111 38.7997 49.286 33.6246 49.286 27.2646C49.286 20.9046 44.111 15.7296 37.751 15.7296H36.7024V26.216H26.216V27.2646ZM47.1248 26.216H38.7996V17.8856C43.1672 18.3701 46.6393 21.8484 47.1248 26.216ZM37.751 28.3133H38.7996H47.1269C46.6036 33.0248 42.601 36.7024 37.751 36.7024C32.901 36.7024 28.8952 33.0259 28.372 28.3133H37.751Z" fill="black"/>
<path d="M22.0214 23.0701V24.1187H34.6051V11.535H33.5565C27.1965 11.535 22.0214 16.7101 22.0214 23.0701ZM32.5078 22.0214H24.1774C24.6619 17.6538 28.1402 14.1755 32.5078 13.691V22.0214Z" fill="black"/>
<path d="M32.5078 30.4105H34.6051V32.5078H32.5078V30.4105Z" fill="black"/>
<path d="M36.7024 30.4105H38.7996V32.5078H36.7024V30.4105Z" fill="black"/>
<path d="M40.8969 30.4105H42.9942V32.5078H40.8969V30.4105Z" fill="black"/>
</svg>
