<svg width="64" height="64" viewBox="0 0 64 64" fill="none" xmlns="http://www.w3.org/2000/svg">
<path d="M18 61.5H46C46 57.772 42.978 54.75 39.25 54.75H24.75C21.0225 54.75 18 57.772 18 61.5Z" fill="#868EAF"/>
<path d="M4.25 47.25H59.75C61.4067 47.25 62.75 45.9067 62.75 44.25V5.5C62.75 3.84326 61.4067 2.5 59.75 2.5H4.25C2.59326 2.5 1.25 3.84326 1.25 5.5V44.25C1.25 45.9067 2.59326 47.25 4.25 47.25Z" fill="#DFECFF"/>
<path d="M62.75 39.75V44.25C62.75 45.9067 61.4067 47.25 59.75 47.25H4.25C2.59326 47.25 1.25 45.9067 1.25 44.25V39.75H62.75Z" fill="#868EAF"/>
<path d="M26.5 47.25H37.5V54.75H26.5V47.25Z" fill="white"/>
<path d="M26.5 47.25H37.5V54.75H26.5V47.25Z" fill="#87B0EC"/>
<path d="M46.0664 15.2256L34.2681 27.0244L28.6675 32.625L23.0664 27.0244L17.9019 21.8594L23.5024 16.2588L28.6675 21.4233L40.4658 9.625L46.0664 15.2256Z" fill="#FFA76B"/>
<path d="M59.75 1.25H4.25C1.90674 1.25 0 3.15674 0 5.5V44.25C0 46.5933 1.90674 48.5 4.25 48.5H25.25V53.5H24.75C20.3389 53.5 16.75 57.0889 16.75 61.5C16.75 62.1904 17.3096 62.75 18 62.75H46C46.6904 62.75 47.25 62.1904 47.25 61.5C47.25 57.0889 43.6611 53.5 39.25 53.5H38.75V48.5H59.75C62.0933 48.5 64 46.5933 64 44.25V5.5C64 3.15674 62.0933 1.25 59.75 1.25ZM44.6069 60.25H19.3936C19.9609 57.8174 22.1475 56 24.75 56H39.25C41.853 56 44.0396 57.8174 44.6069 60.25ZM36.25 53.5H27.75V48.5H36.25V53.5ZM61.5 44.25C61.5 45.2148 60.7148 46 59.75 46H4.25C3.28516 46 2.5 45.2148 2.5 44.25V41H52.75C53.4404 41 54 40.4404 54 39.75C54 39.0596 53.4404 38.5 52.75 38.5H2.5V5.5C2.5 4.53516 3.28516 3.75 4.25 3.75H59.75C60.7148 3.75 61.5 4.53516 61.5 5.5V44.25Z" fill="black"/>
<path d="M32.0059 42.125H31.9941C31.3037 42.125 30.75 42.6846 30.75 43.375C30.75 44.0654 31.3154 44.625 32.0059 44.625C32.6963 44.625 33.2559 44.0654 33.2559 43.375C33.2559 42.6846 32.6963 42.125 32.0059 42.125Z" fill="black"/>
<path d="M57.7505 38.5C57.4214 38.5 57.0991 38.6338 56.8667 38.8662C56.6328 39.0986 56.5005 39.4214 56.5005 39.75C56.5005 40.0786 56.6328 40.4014 56.8667 40.6338C57.0991 40.8662 57.4214 41 57.7505 41C58.0791 41 58.4019 40.8662 58.6343 40.6338C58.8667 40.4014 59.0005 40.0786 59.0005 39.75C59.0005 39.4214 58.8667 39.0986 58.6343 38.8662C58.4019 38.6338 58.0791 38.5 57.7505 38.5Z" fill="black"/>
<path d="M41.3496 8.74121C41.1152 8.50684 40.7974 8.375 40.4658 8.375C40.1343 8.375 39.8164 8.50684 39.582 8.74121L28.6675 19.6558L24.3862 15.375C24.1519 15.1406 23.834 15.0088 23.5024 15.0088C23.1709 15.0088 22.853 15.1406 22.6187 15.375L17.0181 20.9756C16.5298 21.4639 16.5298 22.2554 17.0181 22.7437L27.7832 33.5088C28.0176 33.7432 28.3359 33.875 28.6675 33.875C28.9985 33.875 29.3169 33.7432 29.5513 33.5088L46.9502 16.1099C47.4385 15.6216 47.4385 14.8301 46.9502 14.3418L41.3496 8.74121ZM28.6675 30.8574L19.6694 21.8599L23.5024 18.0269L27.7837 22.3076C28.2715 22.7954 29.063 22.7954 29.5513 22.3076L40.4658 11.3931L44.2988 15.2261L28.6675 30.8574Z" fill="black"/>
</svg>
