<svg width="66" height="61" viewBox="0 0 66 61" fill="none" xmlns="http://www.w3.org/2000/svg">
<path d="M63.4219 5.41406C63.4219 7.69208 61.5749 9.53906 59.2969 9.53906C57.0189 9.53906 55.1719 7.69208 55.1719 5.41406C55.1719 3.13605 57.0189 1.28906 59.2969 1.28906C61.5749 1.28906 63.4219 3.13605 63.4219 5.41406Z" fill="#DFECFF"/>
<path d="M28.3164 16.9727C28.3164 19.2507 26.4694 21.0977 24.1914 21.0977C21.9129 21.0977 20.0664 19.2507 20.0664 16.9727C20.0664 14.6941 21.9129 12.8477 24.1914 12.8477C26.4694 12.8477 28.3164 14.6941 28.3164 16.9727Z" fill="#87B0EC"/>
<path d="M45.8831 21.0977C45.8831 23.3757 44.0366 25.2227 41.7581 25.2227C39.48 25.2227 37.6331 23.3757 37.6331 21.0977C37.6331 18.8191 39.48 16.9727 41.7581 16.9727C44.0366 16.9727 45.8831 18.8191 45.8831 21.0977Z" fill="#868EAF"/>
<path d="M10.8281 33C10.8281 35.278 8.98114 37.125 6.70312 37.125C4.42511 37.125 2.57812 35.278 2.57812 33C2.57812 30.722 4.42511 28.875 6.70312 28.875C8.98114 28.875 10.8281 30.722 10.8281 33Z" fill="#FFA76B"/>
<path d="M1.28906 44.6445H12.1172V59.5549H1.28906V44.6445Z" fill="#FFA76B"/>
<path d="M18.7773 28.6172H29.6055V59.5547H18.7773V28.6172Z" fill="#87B0EC"/>
<path d="M36.344 32.7422H47.1721V59.5547H36.344V32.7422Z" fill="#868EAF"/>
<path d="M53.8828 17.0586H64.7109V59.5549H53.8828V17.0586Z" fill="#DFECFF"/>
<path d="M12.1172 43.3555H1.28906C0.577057 43.3555 0 43.9325 0 44.6445V59.5549C0 60.2669 0.577057 60.8439 1.28906 60.8439H12.1172C12.8292 60.8439 13.4062 60.2669 13.4062 59.5549V44.6445C13.4062 43.933 12.8292 43.3555 12.1172 43.3555ZM10.8281 58.2658H2.57812V45.9336H10.8281V58.2658Z" fill="black"/>
<path d="M29.6055 27.3281H18.7773C18.0653 27.3281 17.4883 27.9052 17.4883 28.6172V59.5547C17.4883 60.2667 18.0653 60.8438 18.7773 60.8438H29.6055C30.3175 60.8438 30.8945 60.2667 30.8945 59.5547V28.6172C30.8945 27.9052 30.317 27.3281 29.6055 27.3281ZM28.3164 58.2656H20.0664V29.9062H28.3164V58.2656Z" fill="black"/>
<path d="M47.1721 31.4531H36.344C35.6325 31.4531 35.0549 32.0302 35.0549 32.7422V59.5547C35.0549 60.2667 35.6325 60.8438 36.344 60.8438H47.1721C47.8841 60.8438 48.4612 60.2667 48.4612 59.5547V32.7422C48.4612 32.0302 47.8841 31.4531 47.1721 31.4531ZM45.8831 58.2656H37.6331V34.0312H45.8831V58.2656Z" fill="black"/>
<path d="M6.70312 38.4141C9.68861 38.4141 12.1172 35.9855 12.1172 33C12.1172 32.0579 11.8745 31.1711 11.4495 30.3987L21.1875 21.4745C22.0475 22.05 23.0808 22.3869 24.1916 22.3869C26.2928 22.3869 28.1167 21.1829 29.0135 19.4291L36.3455 21.1507C36.3742 24.112 38.7907 26.5119 41.7586 26.5119C44.7436 26.5119 47.1726 24.0833 47.1726 21.0978C47.1726 20.1789 46.9415 19.3133 46.5362 18.5544L56.2384 9.87845C57.109 10.4767 58.1624 10.8281 59.2969 10.8281C62.2824 10.8281 64.7109 8.39955 64.7109 5.41406C64.7109 2.42857 62.2824 0 59.2969 0C56.3114 0 53.8828 2.42857 53.8828 5.41406C53.8828 6.33302 54.1134 7.19861 54.5193 7.95744L44.8166 16.6334C43.946 16.0347 42.8925 15.6838 41.7581 15.6838C39.6573 15.6838 37.833 16.8877 36.9362 18.6411L29.6041 16.9194C29.5754 13.9586 27.1589 11.5588 24.1911 11.5588C21.2061 11.5588 18.777 13.9873 18.777 16.9728C18.777 17.9149 19.0197 18.8017 19.4447 19.5741L9.70724 28.4984C8.8472 27.9223 7.81393 27.5859 6.70312 27.5859C3.71764 27.5859 1.28906 30.0145 1.28906 33C1.28906 35.9855 3.71764 38.4141 6.70312 38.4141ZM59.2969 2.57812C60.8609 2.57812 62.1328 3.85007 62.1328 5.41406C62.1328 6.97806 60.8609 8.25 59.2969 8.25C57.7329 8.25 56.4609 6.97806 56.4609 5.41406C56.4609 3.85007 57.7329 2.57812 59.2969 2.57812ZM41.7581 18.2619C43.3221 18.2619 44.594 19.5338 44.594 21.0978C44.594 22.6613 43.3221 23.9338 41.7581 23.9338C40.1946 23.9338 38.9221 22.6613 38.9221 21.0978C38.9221 19.5338 40.1946 18.2619 41.7581 18.2619ZM24.1916 14.1369C25.7551 14.1369 27.0275 15.4088 27.0275 16.9728C27.0275 18.5363 25.7551 19.8088 24.1916 19.8088C22.6276 19.8088 21.3556 18.5363 21.3556 16.9728C21.3556 15.4088 22.6276 14.1369 24.1916 14.1369ZM6.70312 30.1641C8.26712 30.1641 9.53906 31.436 9.53906 33C9.53906 34.564 8.26712 35.8359 6.70312 35.8359C5.13913 35.8359 3.86719 34.564 3.86719 33C3.86719 31.436 5.13913 30.1641 6.70312 30.1641Z" fill="black"/>
<path d="M64.7109 15.7695H53.8828C53.1708 15.7695 52.5938 16.3466 52.5938 17.0586V32.5057C52.5938 33.2177 53.1708 33.7948 53.8828 33.7948C54.5948 33.7948 55.1719 33.2177 55.1719 32.5057V18.3477H63.4219V58.2658H55.1719V44.1078C55.1719 43.3958 54.5948 42.8187 53.8828 42.8187C53.1708 42.8187 52.5938 43.3958 52.5938 44.1078V59.5549C52.5938 60.2669 53.1708 60.8439 53.8828 60.8439H64.7109C65.4229 60.8439 66 60.2669 66 59.5549V17.0586C66 16.3471 65.4229 15.7695 64.7109 15.7695Z" fill="black"/>
</svg>
