<svg width="66" height="66" viewBox="0 0 66 66" fill="none" xmlns="http://www.w3.org/2000/svg">
<g clip-path="url(#clip0_1_171)">
<path d="M37.5291 11.5049L41.7779 13.9773L40.521 18.7288L45.2738 17.472L47.7449 21.7207V27.3517V57.8725C47.7449 61.6494 50.8065 64.7109 54.5834 64.7109H11.6061C7.82912 64.7109 4.76759 61.6494 4.76759 57.8725V11.5049H32.1847" fill="#DFECFF"/>
<path d="M55.1441 64.711H54.9714C54.9998 64.711 55.0294 64.711 55.0578 64.7097C55.0861 64.711 55.1158 64.711 55.1441 64.711Z" fill="black"/>
<path d="M61.2324 35.2437V57.8722C61.2324 61.6175 58.222 64.6602 54.4881 64.7094C50.7555 64.6602 47.7453 61.6175 47.7453 57.8722V35.2437H61.2324Z" fill="#868EAF"/>
<path d="M11.1167 17.5643H34.8634V23.8381H11.1167V17.5643Z" fill="#868EAF"/>
<path d="M30.1444 29.7456H41.1635V40.7418H30.1444V29.7456Z" fill="#868EAF"/>
<path d="M47.7452 1.28906L50.217 5.53743L54.9688 4.28123L53.7126 9.0331L57.961 11.5049L53.7126 13.9767L54.9688 18.7285L50.217 17.4723L47.7452 21.7207L45.2734 17.4723L40.5215 18.7285L41.7777 13.9767L37.5294 11.5049L41.7777 9.0331L40.5215 4.28123L45.2734 5.53743L47.7452 1.28906Z" fill="#FFA76B"/>
<path d="M55.1441 64.711H54.9714C54.9998 64.711 55.0294 64.711 55.0578 64.7097C55.0861 64.711 55.1158 64.711 55.1441 64.711Z" fill="black"/>
<path d="M61.2324 33.9547H49.034V27.3517C49.034 26.6399 48.4569 26.0627 47.7449 26.0627C47.033 26.0627 46.4559 26.6399 46.4559 27.3517V57.8725C46.4559 60.0159 47.2899 61.9681 48.6505 63.4219H11.6061C8.54609 63.4219 6.05666 60.9323 6.05666 57.8725V12.7939H37.1813L40.2805 14.5973L39.2749 18.399C39.1575 18.8429 39.285 19.3156 39.6095 19.6403C39.9341 19.9649 40.4068 20.0924 40.8506 19.9751L44.6534 18.9696C44.6534 18.9696 46.3748 21.9435 46.6193 22.3491C47.1194 23.1786 48.3548 23.2342 48.8595 22.369L50.8373 18.9696L54.6395 19.9748C55.0831 20.0924 55.5559 19.9645 55.8805 19.64C56.2051 19.3154 56.3325 18.8427 56.2152 18.399L55.21 14.5968L58.6094 12.619C59.0062 12.3881 59.2502 11.9638 59.2502 11.5048C59.2502 11.0457 59.0061 10.6214 58.6094 10.3905L55.21 8.41268L56.2152 4.61046C56.3325 4.16677 56.2051 3.69407 55.8805 3.36948C55.5559 3.04489 55.0831 2.91728 54.6395 3.03471L50.8373 4.03992L48.8595 0.640793C48.6286 0.244148 48.2042 0 47.7452 0C47.2862 0 46.8618 0.244148 46.6309 0.640793L44.6531 4.04018L40.8509 3.03497C40.4072 2.91741 39.9345 3.04515 39.6099 3.36974C39.2853 3.69432 39.1578 4.16702 39.2752 4.61072L40.2804 8.41294L37.1817 10.2158H4.76759C4.05564 10.2158 3.47853 10.7931 3.47853 11.5049V57.8725C3.47853 62.354 7.12452 66 11.6061 66H54.5834C54.6369 66 54.6894 65.9957 54.7412 65.9894C59.0523 65.8069 62.5216 62.2157 62.5216 57.8723V35.2437C62.5215 34.5319 61.9444 33.9547 61.2324 33.9547ZM42.426 10.1474C42.9276 9.85553 43.1724 9.26462 43.024 8.70375L42.334 6.09378L44.9439 6.78382C45.5047 6.93219 46.0957 6.6874 46.3876 6.18582L47.7452 3.85236L49.1028 6.18582C49.3947 6.6874 49.9858 6.93193 50.5465 6.78382L53.1564 6.09378L52.4664 8.70375C52.3181 9.26475 52.5629 9.85566 53.0644 10.1474L55.3977 11.5049L53.0644 12.8624C52.5628 13.1542 52.318 13.7451 52.4664 14.306L53.1564 16.916L50.5465 16.2259C49.9858 16.078 49.3947 16.3224 49.1028 16.8239L47.7452 19.1573L46.3879 16.8238C46.1006 16.3297 45.4964 16.0798 44.9441 16.2256L42.334 16.9159C42.5637 16.0469 42.8114 15.1801 43.0239 14.3068C43.1599 13.7479 42.9294 13.1553 42.4259 12.8623L40.0927 11.5049L42.426 10.1474ZM59.9433 57.8723C59.9433 60.8815 57.5049 63.3635 54.5017 63.4198C54.1214 63.4141 53.7424 63.3694 53.3712 63.2869C50.897 62.73 49.0343 60.5028 49.0343 57.8723V36.5328H59.9433V57.8723Z" fill="black"/>
<path d="M36.1525 23.8381V17.5643C36.1525 16.8525 35.5754 16.2753 34.8634 16.2753H11.1167C10.4048 16.2753 9.82764 16.8525 9.82764 17.5643V23.8381C9.82764 24.5499 10.4048 25.1271 11.1167 25.1271H34.8634C35.5754 25.1271 36.1525 24.5499 36.1525 23.8381ZM33.5744 22.549H12.4058V18.8534H33.5744V22.549Z" fill="black"/>
<path d="M17.1541 28.4567C16.4421 28.4567 15.865 29.0339 15.865 29.7457C15.865 30.4575 16.4421 31.0348 17.1541 31.0348H24.0103C24.7223 31.0348 25.2994 30.4575 25.2994 29.7457C25.2994 29.0339 24.7223 28.4567 24.0103 28.4567H17.1541Z" fill="black"/>
<path d="M11.1167 36.5327H24.0102C24.7221 36.5327 25.2992 35.9555 25.2992 35.2437C25.2992 34.5318 24.7221 33.9546 24.0102 33.9546H11.1167C10.4047 33.9546 9.82764 34.5318 9.82764 35.2437C9.82764 35.9555 10.4047 36.5327 11.1167 36.5327Z" fill="black"/>
<path d="M11.1167 42.0309H24.0102C24.7221 42.0309 25.2992 41.4536 25.2992 40.7418C25.2992 40.03 24.7221 39.4528 24.0102 39.4528H11.1167C10.4047 39.4528 9.82764 40.03 9.82764 40.7418C9.82764 41.4536 10.4047 42.0309 11.1167 42.0309Z" fill="black"/>
<path d="M42.4526 29.7457C42.4526 29.0339 41.8755 28.4567 41.1635 28.4567H30.1445C29.4325 28.4567 28.8554 29.0339 28.8554 29.7457V40.7419C28.8554 41.4538 29.4325 42.031 30.1445 42.031H41.1635C41.8755 42.031 42.4526 41.4538 42.4526 40.7419V29.7457ZM39.8745 39.4529H31.4335V31.0348H39.8745V39.4529Z" fill="black"/>
<path d="M41.1635 45.7944H10.6176C9.90567 45.7944 9.32855 46.3717 9.32855 47.0835C9.32855 47.7953 9.90567 48.3726 10.6176 48.3726H41.1635C41.8754 48.3726 42.4526 47.7953 42.4526 47.0835C42.4526 46.3717 41.8754 45.7944 41.1635 45.7944Z" fill="black"/>
<path d="M41.1635 52.136H10.6176C9.90567 52.136 9.32855 52.7132 9.32855 53.425C9.32855 54.1369 9.90567 54.7141 10.6176 54.7141H41.1635C41.8754 54.7141 42.4526 54.1369 42.4526 53.425C42.4526 52.7132 41.8754 52.136 41.1635 52.136Z" fill="black"/>
<path d="M12.1881 29.0296C11.8879 28.5701 11.299 28.3587 10.7735 28.5042C10.2312 28.6544 9.84368 29.1509 9.82872 29.7135C9.79804 30.8607 11.254 31.4728 12.0478 30.6359C12.4612 30.2001 12.5167 29.5319 12.1881 29.0296Z" fill="black"/>
</g>
<defs>
<clipPath id="clip0_1_171">
<rect width="66" height="66" fill="white"/>
</clipPath>
</defs>
</svg>
