<svg width="156" height="157" viewBox="0 0 156 157" fill="none" xmlns="http://www.w3.org/2000/svg">
<g filter="url(#filter0_d_301_2)">
<circle cx="77" cy="76" r="72" fill="#4C97CF"/>
<circle cx="77" cy="76" r="72" fill="url(#paint0_linear_301_2)" fill-opacity="0.47"/>
</g>
<path d="M108.527 72.9277L62.3044 46.3777C61.4089 45.8644 60.3169 45.8762 59.4329 46.4013C58.5431 46.9323 58 47.8999 58 48.9501V102.05C58 103.1 58.5431 104.068 59.4329 104.599C59.8836 104.864 60.3862 105 60.8889 105C61.3742 105 61.8653 104.876 62.3044 104.622L108.527 78.0725C109.434 77.5474 110 76.568 110 75.5001C110 74.4322 109.434 73.4528 108.527 72.9277Z" fill="white"/>
<defs>
<filter id="filter0_d_301_2" x="0" y="0.8" width="156" height="156" filterUnits="userSpaceOnUse" color-interpolation-filters="sRGB">
<feFlood flood-opacity="0" result="BackgroundImageFix"/>
<feColorMatrix in="SourceAlpha" type="matrix" values="0 0 0 0 0 0 0 0 0 0 0 0 0 0 0 0 0 0 127 0" result="hardAlpha"/>
<feOffset dx="1" dy="2.8"/>
<feGaussianBlur stdDeviation="3"/>
<feColorMatrix type="matrix" values="0 0 0 0 0 0 0 0 0 0 0 0 0 0 0 0 0 0 0.15 0"/>
<feBlend mode="normal" in2="BackgroundImageFix" result="effect1_dropShadow_301_2"/>
<feBlend mode="normal" in="SourceGraphic" in2="effect1_dropShadow_301_2" result="shape"/>
</filter>
<linearGradient id="paint0_linear_301_2" x1="77" y1="4" x2="77" y2="148" gradientUnits="userSpaceOnUse">
<stop stop-color="white"/>
<stop offset="1" stop-color="white" stop-opacity="0"/>
</linearGradient>
</defs>
</svg>
