<svg xmlns="http://www.w3.org/2000/svg" xmlns:xlink="http://www.w3.org/1999/xlink"><defs><style>
    .sprite-symbol-usage {display: none;}
    .sprite-symbol-usage:target {display: inline;}
  </style><symbol viewBox="0 0 12 9" id="check"><path d="m4 8.3-4-4 1.1-1.1L4 6.1 10.1 0l1.1 1.1L4 8.3Z" /></symbol><symbol viewBox="0 0 16 16" id="clock"><path d="M8 .25A7.749 7.749 0 0 0 .25 8 7.749 7.749 0 0 0 8 15.75 7.749 7.749 0 0 0 15.75 8 7.749 7.749 0 0 0 8 .25ZM14.75 8A6.75 6.75 0 0 1 8 14.75 6.75 6.75 0 0 1 1.25 8 6.75 6.75 0 0 1 8 1.25 6.75 6.75 0 0 1 14.75 8Zm-4.653 2.76L7.559 8.915a.377.377 0 0 1-.153-.303V3.625c0-.206.169-.375.375-.375h.438c.206 0 .375.169.375.375v4.572L10.797 9.8a.375.375 0 0 1 .081.525l-.256.353a.378.378 0 0 1-.525.081Z" /></symbol><symbol fill="none" viewBox="0 0 17 17" id="player-close"><path fill-rule="evenodd" clip-rule="evenodd" d="m10.32 8.5 5.46-5.46a1.287 1.287 0 0 0-1.82-1.82L8.5 6.68 3.04 1.22a1.287 1.287 0 1 0-1.82 1.82L6.68 8.5l-5.46 5.46a1.287 1.287 0 0 0 1.82 1.82l5.46-5.46 5.46 5.46a1.287 1.287 0 1 0 1.82-1.82L10.32 8.5Z" fill="#A4A4A4" /></symbol><symbol fill="none" viewBox="0 0 191 191" id="player-play"><circle cx="95.5" cy="95.5" r="95" fill="url(#player-play_a)" stroke="#fff" /><g filter="url(#player-play_b)"><circle cx="96" cy="97" r="72" fill="#4C97CF" /><circle cx="96" cy="97" r="72" fill="url(#player-play_c)" fill-opacity=".47" /></g><path d="m127.527 93.928-46.223-26.55a2.842 2.842 0 0 0-2.871.023A2.96 2.96 0 0 0 77 69.951v53.099a2.96 2.96 0 0 0 1.433 2.549c.45.265.953.401 1.456.401.485 0 .976-.124 1.415-.378l46.223-26.55A2.97 2.97 0 0 0 129 96.5a2.97 2.97 0 0 0-1.473-2.572Z" fill="#fff" /><defs><filter id="player-play_b" x="19" y="21.8" width="156" height="156" filterUnits="userSpaceOnUse" color-interpolation-filters="sRGB"><feFlood flood-opacity="0" result="BackgroundImageFix"></feFlood><feColorMatrix in="SourceAlpha" values="0 0 0 0 0 0 0 0 0 0 0 0 0 0 0 0 0 0 127 0" result="hardAlpha"></feColorMatrix><feOffset dx="1" dy="2.8"></feOffset><feGaussianBlur stdDeviation="3"></feGaussianBlur><feColorMatrix values="0 0 0 0 0 0 0 0 0 0 0 0 0 0 0 0 0 0 0.15 0"></feColorMatrix><feBlend in2="BackgroundImageFix" result="effect1_dropShadow_4_8"></feBlend><feBlend in="SourceGraphic" in2="effect1_dropShadow_4_8" result="shape"></feBlend></filter></defs></symbol><linearGradient id="player-play_a" x1="95.5" y1="0" x2="95.5" y2="191" gradientUnits="userSpaceOnUse"><stop stop-color="#796F72" stop-opacity=".21" /><stop offset="0" stop-color="#DF504D" stop-opacity="0" /><stop offset="1" stop-color="#550706" stop-opacity=".04" /></linearGradient><linearGradient id="player-play_c" x1="96" y1="25" x2="96" y2="169" gradientUnits="userSpaceOnUse"><stop stop-color="#fff" /><stop offset="1" stop-color="#fff" stop-opacity="0" /></linearGradient></defs><use id="check-usage" xlink:href="#check" class="sprite-symbol-usage" /><use id="clock-usage" xlink:href="#clock" class="sprite-symbol-usage" /><use id="player-close-usage" xlink:href="#player-close" class="sprite-symbol-usage" /><use id="player-play-usage" xlink:href="#player-play" class="sprite-symbol-usage" /></svg>